<svg xmlns="http://www.w3.org/2000/svg" version="1.0" width="84.000000pt" height="84.000000pt" viewBox="0 0 84.000000 84.000000" preserveAspectRatio="xMidYMid meet">

<g transform="translate(0.000000,84.000000) scale(0.100000,-0.100000)" fill="#FE4365" stroke="none">
<path d="M0 781 l0 -61 43 0 c167 -1 364 -102 496 -255 80 -93 161 -299 161 -410 0 -24 2 -25 65 -25 l65 0 0 76 c0 90 -20 173 -65 270 -88 191 -231 333 -432 426 -63 29 -77 32 -200 36 l-133 4 0 -61z" fill="#FE4365"/>
<path d="M575 831 c6 -5 37 -31 71 -59 33 -28 89 -85 123 -127 l62 -77 -3 134 -3 133 -130 3 c-79 2 -126 -1 -120 -7z" fill="#FE4365"/>
<path d="M0 507 l0 -75 61 -11 c89 -15 159 -51 220 -113 66 -66 108 -147 116 -222 l6 -56 73 0 74 0 0 38 c0 20 -7 62 -15 92 -59 224 -248 388 -477 415 l-58 6 0 -74z" fill="#FE4365"/>
</g>
</svg>